<svg width="100" height="100" viewBox="0 0 100 100" fill="none" xmlns="http://www.w3.org/2000/svg">
<path d="M45.0725 35.8568C44.4545 35.0064 44.511 33.1704 44.4795 32.1163C44.362 28.1853 42.6896 25.1189 40.5798 21.9349C40.0785 21.1791 39.5305 20.5076 38.9356 19.9203C38.9088 19.8935 38.8765 19.884 38.8388 19.892C38.0467 20.0499 37.3557 20.259 36.5756 19.8158C35.8912 19.426 35.0435 18.8989 35.3689 18.0332C35.976 16.4227 37.952 15.3479 39.1402 13.9138C40.3719 12.4285 41.237 10.3519 41.9127 8.49094C42.3566 7.26807 43.1346 5.32434 44.8799 6.08877C46.6437 6.86082 46.7514 8.97116 45.8037 10.4107C45.7834 10.4419 45.7761 10.4757 45.7819 10.512C46.0942 12.4797 47.4805 15.0408 48.9298 16.2757C49.5663 16.8191 50.3617 17.2242 50.6958 16.0557C51.0461 14.835 51.1169 13.7428 50.834 12.471C50.2703 9.93486 48.6937 7.64485 47.0006 5.48768C46.7003 5.10437 46.3688 4.84303 46.0061 4.70365C45.1802 4.38568 44.7776 4.00456 44.6525 3.05065C44.4577 1.56209 45.0551 0.640855 46.4609 0.176972C47.7503 -0.2488 49.5642 0.162815 50.7796 0.681146C51.3033 0.904739 51.6613 1.03723 51.8535 1.0786C53.675 1.47171 55.7271 0.791128 57.4986 0.403469C58.8696 0.102925 60.8858 0.32071 60.7182 2.22634C60.6363 3.15846 60.1669 3.92398 59.3102 4.52289C59.258 4.55918 59.2094 4.64666 59.1644 4.78532C58.1166 8.00093 59.2689 11.1294 60.4386 14.0706C61.5865 16.9574 63.482 19.3781 65.6419 21.5722C66.1098 22.047 66.5729 22.5261 67.0314 23.0096C67.4895 23.4931 68.1728 24.9272 67.2805 25.3541C65.4253 26.2427 63.4363 26.2677 61.6583 27.6387C60.8532 28.2594 59.4778 29.3189 58.4071 29.2198C56.7064 29.0619 56.294 27.2467 56.2483 25.8888C56.1976 24.3817 56.244 23.2093 56.3876 22.3715C56.7739 20.1109 56.8065 18.6964 56.5432 16.3846C56.3227 14.4485 56.0699 12.814 55.7848 11.4811C55.7398 11.2713 55.622 11.132 55.4312 11.063C53.9111 10.5109 54.6847 14.9624 54.7772 15.5134C55.1602 17.81 55.3985 19.9606 54.7816 22.2169C54.1908 24.3806 52.2507 24.2369 50.5587 23.6673C48.7448 23.0554 47.4282 21.3512 46.2564 19.9454C46.0094 19.6492 45.8755 19.4096 45.4468 19.3726C45.4286 19.3712 45.4102 19.3736 45.3928 19.3796C45.3754 19.3856 45.3594 19.3951 45.3456 19.4075C44.6373 20.0532 46.4555 22.3824 46.8983 22.9084C47.9951 24.2107 49.3484 25.1465 50.958 25.7156C51.7552 25.9973 52.8473 26.4249 54.2343 26.9984C55.1635 27.3828 56.1874 28.2626 56.1918 29.3243C56.1961 30.5102 54.5128 31.1221 53.6119 31.5196C51.1299 32.614 48.8634 34.2964 46.9027 35.859C46.3913 36.2662 45.5186 36.4699 45.0725 35.8568Z" fill="#466C45"/>
<path d="M65.9802 19.0622C63.3938 16.0219 61.4744 11.8546 61.3743 7.89089C61.3737 7.87364 61.3679 7.85694 61.3576 7.84296C61.3473 7.82897 61.3331 7.81836 61.3166 7.81248C60.8386 7.64261 60.5861 7.29815 60.5593 6.77909C60.4962 5.55514 60.9162 4.15368 61.3286 3.00813C61.5564 2.37583 61.9789 1.93045 62.5962 1.67202C63.779 1.17655 66.3153 3.56566 67.5558 4.00232C68.1375 4.20704 68.7483 4.29524 69.3881 4.26693C69.9485 4.24298 70.7722 4.11775 71.3554 4.20269C71.9988 4.29633 72.5969 4.55078 73.1497 4.96602C73.9538 5.57038 74.142 6.39797 74.2845 7.37147C74.5315 9.04515 73.7764 9.68 72.2063 8.92319C70.82 8.2535 69.0878 7.47709 67.5394 7.77873C63.7126 8.52573 66.0629 12.8553 69.1019 11.3842C69.6547 11.1163 69.7145 10.292 70.2151 9.93916C70.6394 9.64007 71.1051 9.67746 71.6122 10.0513C72.4511 10.6698 73.1497 12.3511 72.5926 13.317C72.1062 14.1599 71.35 13.8201 70.5654 13.7352C69.4048 13.611 68.5967 14.0488 68.1412 15.0484C67.7853 15.8303 68.2608 16.6829 68.9866 17.0161C70.0627 17.5116 71.5621 16.8876 72.2509 16.0339C73.2962 14.7395 74.0405 13.2876 74.4837 11.6782C74.7209 10.8168 74.8754 9.93916 75.2083 9.10069C75.4956 8.37982 75.8014 8.0074 76.5978 8.04769C78.6522 8.15114 81.0144 9.17256 81.8784 11.1283C82.5051 12.5482 81.306 13.8092 80.1526 14.3885C78.9547 14.9907 77.5532 15.619 76.5598 16.2604C75.3766 17.0234 74.3469 17.9602 73.4707 19.0709C73.0322 19.6263 72.6176 20.443 72.153 21.0277C71.1693 22.2658 69.4316 22.8092 68.0487 21.8575C67.3603 21.3834 66.7488 20.8277 66.2141 20.1903C65.9421 19.8669 65.8475 19.5392 65.9965 19.1548C66.0024 19.1393 66.004 19.1225 66.0011 19.1062C65.9983 19.0899 65.991 19.0747 65.9802 19.0622Z" fill="#466C45"/>
<path d="M23.0081 27.6213C22.7643 27.6561 22.0375 27.6322 22.1713 27.1901C22.5043 26.0924 23.1495 25.1309 23.7251 24.1498C24.5992 22.6601 25.0697 21.0674 25.1364 19.3716C25.1553 18.8808 25.1125 18.1607 25.008 17.2111C24.8208 15.5059 24.588 13.8278 24.5826 12.1073C24.5728 8.53455 26.762 3.69862 30.7673 3.19771C32.4919 2.9821 33.7824 3.789 35.0642 4.80606C36.3318 5.81223 37.8845 4.66994 39.0988 4.27575C41.1923 3.59626 41.7995 5.27648 41.2217 6.93383C40.8376 8.03365 40.4829 9.287 40.0313 10.2398C38.9334 12.5571 36.9237 15.1258 34.482 16.1081C33.5768 16.4728 32.4212 16.3748 32.4506 15.1258C32.4723 14.1861 32.5376 12.9284 31.9544 12.1901C31.6312 11.7817 31.1329 11.6097 30.7695 12.0877C30.1732 12.8728 30.1862 14.1197 30.4452 15.0137C30.7303 16.0035 31.6617 16.6296 31.9435 17.6042C32.2264 18.5799 31.9783 19.2714 31.233 19.9291C28.8617 22.0184 27.3514 23.3574 26.7022 23.9462C25.9608 24.6184 25.2641 25.4166 24.6119 26.3407C24.2714 26.8242 23.563 27.5418 23.0081 27.6213ZM31.3353 6.60062C30.48 5.4518 28.7119 6.4743 28.4703 7.61441C28.3017 8.41368 28.2668 10.6057 29.6901 10.2169C30.3027 10.0503 31.5333 9.66813 31.875 9.04308C32.2547 8.34835 31.7694 7.18319 31.3353 6.60062Z" fill="#466C45"/>
<path d="M19.3728 12.3393C20.2607 12.997 20.1769 14.7436 19.9995 15.728C19.6219 17.8079 18.1117 19.2845 17.1193 21.0747C16.5238 22.1483 16.0515 23.2779 15.7026 24.4634C15.5274 25.058 15.213 26.4747 15.5318 27.0169C15.757 27.3992 16.4708 26.9124 16.6612 26.7186C18.0235 25.3313 18.3772 23.785 18.5687 21.9099C18.6223 21.3843 18.6945 20.9883 18.7852 20.7218C19.203 19.4946 20.3836 17.5944 21.7796 17.3048C23.3454 16.9803 24.0396 18.3371 23.9058 19.6754C23.7077 21.6409 22.7274 23.3734 21.8308 24.9774C19.9854 28.2768 16.9692 32.1218 13.163 33.1226C10.7815 33.7491 8.38046 34.2913 5.95981 34.7494C5.17421 34.8975 4.50031 34.9545 3.93813 34.9204C3.06765 34.8659 2.31795 34.169 2.67376 33.2478C4.1688 29.3788 9.334 29.5705 10.4395 25.2714C10.7888 23.9113 10.6974 22.0427 10.9857 20.4692C11.1649 19.4972 11.4384 18.6079 11.8061 17.8013C12.4536 16.3814 13.5536 15.7846 14.8126 15.005C15.5089 14.5727 15.8299 14.1153 16.3653 13.4641C17.0965 12.5734 18.2357 11.4975 19.3728 12.3393Z" fill="#466C45"/>
<path d="M82.4878 32.2034C82.021 31.6698 81.3018 30.4503 81.9177 29.7904C81.9554 29.7497 81.9703 29.7018 81.9623 29.6466C81.5009 26.664 80.6849 23.8971 78.8688 21.3348C78.8493 21.3069 78.8202 21.2874 78.7872 21.2804C78.2453 21.1664 77.8355 20.8746 77.5577 20.4049C77.3477 20.0499 76.771 19.0829 76.8461 18.6974C76.9462 18.1835 77.6404 17.5671 78.0647 17.3308C79.2507 16.6699 80.8035 16.1798 81.8698 15.2085C82.4399 14.6902 82.9557 13.8103 83.404 13.2866C84.2233 12.3272 85.5497 13.145 86.2766 13.7994C87.0818 14.5247 89.5648 17.076 88.8238 18.4056C88.6265 18.7606 88.336 18.9722 87.9522 19.0405C87.134 19.1875 86.6063 18.5581 85.8598 18.3958C84.701 18.1443 83.6543 18.667 82.9938 19.6263C82.1026 20.9199 83.4704 22.2474 84.6151 20.8394C84.8443 20.5584 85.0612 20.2677 85.2657 19.9671C86.4409 18.2401 87.9871 20.8481 88.3995 21.7715C88.6356 22.3007 88.8021 22.7308 88.628 23.2971C88.4335 23.9316 87.9856 24.2252 87.2842 24.178C85.8152 24.0789 84.5443 25.8223 86.01 26.9461C86.6422 27.4317 87.7553 26.2198 88.048 25.7624C88.4753 25.0953 88.8093 24.3846 89.0501 23.6303C89.3135 22.806 89.2025 21.9827 89.8107 21.2945C90.4331 20.5911 91.2753 20.5671 92.0185 21.1508C93.8301 22.5729 94.866 24.2052 95.8856 26.2579C96.0234 26.5345 96.0698 26.8063 96.0248 27.0735C95.8399 28.1722 94.9498 28.3671 93.9977 28.3987C93.1838 28.4256 92.3706 28.4633 91.5582 28.512C89.0675 28.6601 87.6106 30.2009 85.8696 31.733C85.533 32.0292 85.0293 32.3301 84.3583 32.6357C83.552 33.0016 83.0634 32.859 82.4878 32.2034Z" fill="#466C45"/>
<path d="M37.0272 37.7396C38.2524 37.1429 36.4843 32.3581 36.2438 31.3345C35.839 29.6195 35.5355 27.9817 35.9805 26.2612C36.3461 24.8456 37.1197 23.1262 38.852 23.0859C41.6854 23.0206 42.9867 28.7298 43.2174 30.6191C43.3175 31.4387 43.3494 32.5458 43.3132 33.9403C43.2493 36.41 43.0676 38.8717 42.768 41.3255C42.4906 43.5959 41.7213 45.532 40.5494 47.4213C40.1156 48.1211 39.6985 48.6859 39.2981 49.1156C37.6768 50.8579 34.5562 52.8779 32.7119 50.0347C31.6956 48.4677 31.244 46.647 31.1287 44.7501C31.071 43.7962 31.0601 42.7215 30.9676 41.8808C30.7555 39.961 30.2223 38.1403 29.5379 36.3403C28.5575 33.7639 26.7763 31.904 25.6229 29.7981C24.7318 28.1701 26.0037 26.0968 27.2964 25.0264C28.3965 24.1149 29.663 23.3527 30.8316 22.5284C31.417 22.1157 31.8153 21.7498 32.1167 21.1672C32.5824 20.2645 32.9545 19.2115 34.1057 19.4848C34.4833 19.5741 34.8413 19.9454 35.0991 20.2678C35.7106 21.03 35.7846 21.7269 35.6258 22.732C35.5453 23.246 35.4745 23.7654 35.3527 24.2783C34.7353 26.8619 34.3839 29.3117 34.2983 31.6275C34.2381 33.2485 34.5972 34.7665 35.3755 36.1814C35.6693 36.7149 36.2841 37.5011 36.9097 37.744C36.9496 37.7599 36.9888 37.7585 37.0272 37.7396Z" fill="#466C45"/>
<path d="M70.5231 24.5961C71.4229 23.664 72.1324 22.6012 72.9365 21.5689C73.4392 20.9243 74.2204 20.1773 75.0996 20.3177C76.5468 20.5475 78.2942 23.7566 78.9569 24.9794C79.3682 25.7417 80.8306 28.9268 79.8111 29.5333C79.4193 29.7664 79.0635 29.4876 78.7882 29.1653C78.4712 28.7936 78.139 28.435 77.7915 28.0894C77.2399 27.5406 76.0408 27.2804 75.6306 28.158C75.2683 28.9323 75.3879 29.7402 75.734 30.5624C76.3172 31.9497 77.661 34.3127 79.0842 34.9595C80.0831 35.4136 81.0634 35.1577 82.1102 35.0586C82.2973 35.0404 82.4381 35.1097 82.5324 35.2666C82.9644 35.9874 81.8817 37.6165 81.5803 38.1609C81.1124 39.0045 80.7443 39.9268 80.4759 40.9279C80.3765 41.2989 80.2202 41.6564 80.0069 42.0005C79.6794 42.5254 79.4563 42.8891 78.81 42.7268C78.4063 42.6244 78.0124 42.4372 77.6272 42.3631C76.5754 42.1613 75.5229 41.9671 74.4696 41.7805C73.8962 41.6782 73.0714 41.3929 73.289 40.6317C73.4181 40.1765 73.5741 39.7308 73.7569 39.2945C74.1432 38.3711 74.0724 37.5381 73.6154 36.656C73.0634 35.5918 72.3489 34.5627 71.4719 33.5689C71.2013 33.2626 70.979 33.0509 70.8049 32.9341C69.9159 32.3362 69.0574 33.0059 68.8006 33.8793C68.4861 34.9508 69.8484 36.6342 68.6124 37.2462C68.0683 37.5148 67.5638 37.4386 67.0988 37.0176C65.6288 35.6858 64.3079 34.0437 63.1414 32.4419C62.3243 31.3181 61.7182 30.5831 62.2731 29.321C62.5528 28.6862 63.1229 28.3007 63.754 28.0557C66.064 27.1584 68.7103 26.4713 70.5231 24.5961Z" fill="#466C45"/>
<path d="M21.9082 45.0496C21.5962 45.0924 21.3282 45.2289 21.1041 45.459C20.2205 46.3661 19.8538 47.4572 19.8212 48.692C19.7983 49.5305 20.0889 50.1392 20.4838 50.8666C21.2009 52.1897 20.992 53.8231 20.4719 55.2006C19.9289 56.6358 19.0715 56.7621 17.6167 57.0648C16.8529 57.2238 15.7332 57.5766 15.0347 57.3828C14.2599 57.1682 13.5918 55.9878 13.3242 55.2506C12.8236 53.8677 12.5756 52.341 12.9063 50.8982C13.1762 49.7243 13.4972 48.6234 14.0325 47.5105C14.9313 45.643 16.0096 43.7929 16.8964 41.761C17.7038 39.9109 17.5982 38.1806 17.2587 36.0016C16.9932 34.2997 17.1956 32.5966 18.448 31.2572C19.3109 30.3349 20.8658 29.4452 22.1628 29.7098C22.5791 29.794 22.9788 29.9341 23.3619 30.1301C26.6816 31.8278 27.2638 35.1686 27.0723 38.6281C26.946 40.8986 27.304 42.3762 28.4628 44.247C29.934 46.6209 31.2364 48.7421 31.3365 51.6093C31.4138 53.8557 30.3975 54.3251 28.5096 54.9098C27.4498 55.2379 26.4227 55.5153 25.4281 55.7418C24.7049 55.9058 24.0365 55.7777 23.4228 55.3574C21.7961 54.2412 22.1421 52.8082 22.7329 51.2249C23.0869 50.2753 23.2491 49.1871 23.2193 47.9603C23.1976 47.0271 22.8581 45.5526 22.0093 45.0692C21.9782 45.051 21.9444 45.0445 21.9082 45.0496ZM20.881 40.0688C21.6198 40.7015 22.4576 40.5403 23.0898 39.8499C23.8787 38.9897 23.9266 38.0521 23.9026 36.8401C23.8787 35.5432 23.8091 34.3269 22.9059 33.3055C22.6492 33.0151 22.4018 32.8448 22.1639 32.7948C20.7221 32.4931 20.0399 35.4528 19.9137 36.4078C19.7146 37.9171 19.7276 39.0811 20.881 40.0688Z" fill="#466C45"/>
<path d="M69.9432 94.0165C69.1598 93.7682 67.7746 93.1475 67.4047 92.345C66.1501 89.6248 65.8639 86.0902 66.0979 83.1936C66.1283 82.8205 66.2303 82.1537 66.4036 81.1933C66.7964 79.01 67.4841 76.8386 68.2958 74.8002C69.2795 72.3272 70.7941 70.1809 72.5372 68.0924C74.5393 65.6945 76.4156 63.2009 78.1659 60.6114C79.3661 58.8354 80.2845 56.908 80.8046 54.8205C81.1626 53.382 81.5151 51.8597 81.6794 50.3864C82.0051 47.4724 82.395 44.5675 82.8491 41.6717C83.2423 39.1657 84.1157 36.818 85.4692 34.6285C87.1852 31.8528 90.1459 30.3436 93.3275 30.4034C95.5809 30.4459 97.7462 31.573 98.9138 33.5374C100.092 35.5192 100.013 38.1425 99.9899 40.3922C99.9841 40.9722 99.8735 42.1432 99.658 43.9051C99.1684 47.9025 98.3915 51.9904 97.546 56.5149C97.0879 58.9682 97.2838 61.782 97.4427 64.3236C97.62 67.1363 97.4524 69.57 96.8888 72.1072C96.2229 75.1062 94.52 77.8971 92.4037 80.1152C90.9173 81.6735 88.6889 82.7178 86.6781 83.3798C85.2495 83.8513 83.7098 84.3087 82.5336 85.1276C81.7839 85.6481 81.0461 86.3472 80.427 87.1508C79.6196 88.1983 78.9494 89.0205 77.9853 90.2782C76.8178 91.7994 75.585 93.1704 73.7352 93.7432C72.7048 94.0622 71.0291 94.3617 69.9432 94.0165ZM87.2798 42.1955C88.8097 43.524 90.7019 44.4147 92.7258 44.2034C94.7953 43.9889 96.73 42.7617 97.9932 41.1523C98.0923 41.0281 98.1194 40.9181 98.1477 40.7701C98.3915 39.4829 98.3305 38.3058 98.2478 37.0111C98.0988 34.6721 96.8224 32.6946 94.4471 32.161C91.1709 31.4249 88.0992 33.0866 86.5214 35.9526C86.0623 36.786 85.7166 37.6713 85.4845 38.6085C85.1548 39.937 86.2918 41.3374 87.2798 42.1955ZM82.6228 55.3454C82.4966 56.6455 82.5749 58.4597 83.8469 59.2361C85.1863 60.055 86.5497 60.5221 88.1547 60.5581C90.6649 60.6147 93.5353 60.0539 94.6713 57.5602C95.0057 56.8263 95.261 56.1555 95.4373 55.5479C96.3437 52.4151 97.0063 49.0002 97.644 45.7007C97.7626 45.0877 97.8224 44.5312 97.8627 43.9356C97.8632 43.9253 97.8606 43.9152 97.8553 43.9064C97.85 43.8976 97.8422 43.8907 97.8329 43.8865C97.8236 43.8823 97.8134 43.8811 97.8035 43.8831C97.7937 43.8851 97.7847 43.8901 97.7778 43.8975C95.0293 46.7036 90.3526 46.7842 87.2113 44.6782C86.1025 43.9345 85.1874 42.8249 84.4345 41.6956C84.4293 41.6881 84.4221 41.6822 84.4137 41.6786C84.4054 41.675 84.3962 41.6738 84.3872 41.6751C84.3783 41.6765 84.37 41.6804 84.3634 41.6864C84.3567 41.6923 84.3519 41.7001 84.3496 41.7087C84.1545 42.3889 84.0344 43.0844 83.9894 43.7951C83.9481 44.431 83.7664 45.1432 83.7033 45.7955C83.6198 46.6492 83.4795 47.7969 83.2822 49.2386C83.1277 50.3719 82.9079 52.4074 82.6228 55.3454ZM72.7353 85.6644C72.6417 86.3221 73.4153 86.8252 73.9985 86.6259C74.4969 86.455 74.7091 85.8071 74.8516 85.3312C76.0387 81.3882 77.2922 77.6455 79.2018 73.0361C80.4716 69.9719 81.983 66.974 83.354 63.9501C83.5901 63.4307 83.4117 62.8023 82.7958 62.7621C82.2833 62.7283 81.8513 63.239 81.6087 63.6484C80.4045 65.684 79.3476 67.7933 78.438 69.9762C77.2897 72.7327 76.1733 75.5022 75.0888 78.2847C74.2521 80.4321 73.5666 82.6622 72.9094 84.8706C72.8317 85.1312 72.7737 85.3958 72.7353 85.6644ZM87.9697 76.9791C87.8337 77.6815 88.406 78.2717 89.1057 78.1062C89.518 78.0071 89.7433 77.6945 89.9054 77.3134C90.4611 76.006 90.9061 74.7076 91.2405 73.4183C91.5561 72.2009 91.7595 70.769 91.9684 69.4394C92.1708 68.1494 92.2608 66.8524 92.2383 65.5486C92.231 65.1406 92.1944 64.8579 92.1284 64.7003C91.7149 63.717 90.4418 64.3051 90.3787 65.2394C90.1198 69.0844 89.6269 72.6909 88.183 76.2572C88.0887 76.4909 88.0176 76.7316 87.9697 76.9791Z" fill="#466C45"/>
<path d="M59.2579 48.8086C59.9587 48.9861 60.6355 49.034 60.7203 49.9258C60.7976 50.7414 60.0566 51.7247 59.6018 52.3694C58.9141 53.3439 57.8162 54.4035 56.9903 55.4804C55.7858 57.0539 55.1449 58.9432 53.5248 60.1781C52.9274 60.6321 52.1091 60.2205 51.7523 59.6728C51.243 58.8899 50.8752 57.238 51.3464 56.406C51.3641 56.3748 51.3721 56.3392 51.3692 56.3037C51.2996 55.4332 51.1215 54.585 50.835 53.7588C50.1288 51.7225 49.5021 49.659 48.7948 47.6238C48.3335 46.2964 48.0451 45.4514 47.5402 44.4267C47.4271 44.198 47.3128 44.0815 47.0495 44.0107C45.4261 43.573 44.8831 41.7741 45.3227 40.291C45.7949 38.6946 47.1866 37.4358 48.5391 36.5559C50.7516 35.1164 53.0235 33.7773 55.3549 32.5389C57.8946 31.1897 60.5745 30.8728 62.3612 33.6539C62.9858 34.6263 63.6071 35.749 63.4928 36.9055C63.3905 37.9378 63.1881 38.5606 62.5298 39.3153C62.5243 39.3218 62.5202 39.3294 62.5178 39.3376C62.5154 39.3458 62.5149 39.3544 62.5161 39.3629C62.5173 39.3714 62.5204 39.3794 62.525 39.3866C62.5296 39.3938 62.5357 39.3999 62.5429 39.4046C63.7463 40.1897 65.6831 40.5392 67.0019 40.683C67.5743 40.7461 68.1031 40.573 68.6341 40.2485C69.1607 39.9262 69.745 39.4764 70.2488 39.5973C70.7645 39.7214 71.0594 40.2899 70.9049 40.794C70.4773 42.1879 67.5438 43.6884 66.0934 44.4997C64.4394 45.4242 63.7724 47.259 62.3383 48.3904C61.5952 48.9763 60.8357 48.0311 60.8074 47.3124C60.8059 47.2761 60.7925 47.2452 60.7671 47.2198C60.0671 46.528 59.3 45.9251 58.4658 45.4111C58.4114 45.377 58.3635 45.393 58.3222 45.459C58.317 45.4669 58.3136 45.4758 58.3121 45.485C58.3106 45.4941 58.3111 45.5035 58.3135 45.5124L59.1861 48.7378C59.1907 48.7547 59.1998 48.7701 59.2124 48.7825C59.225 48.795 59.2407 48.8039 59.2579 48.8086ZM51.663 41.198C51.9677 41.9385 52.6151 42.667 53.4377 42.8162C54.7336 43.0503 56.7586 41.2579 57.5986 40.4053C58.6573 39.3316 59.4973 38.2982 58.7084 36.8608C58.2917 36.1008 57.6476 35.7305 56.7912 35.9679C55.4355 36.3436 54.1058 37.2147 52.9774 38.0412C52.0265 38.7381 51.1527 39.9556 51.663 41.198Z" fill="#466C45"/>
<path d="M4.27328 62.9308C2.71513 63.4154 1.40288 61.9355 0.942618 60.6299C0.468208 59.2883 0.407999 57.9214 0.761993 56.529C1.17765 54.8949 1.59729 53.2607 2.02092 51.6266C2.25595 50.7228 2.48445 49.7504 2.56388 48.8346C2.61683 48.219 2.60088 47.7293 2.516 47.3656C2.45942 47.1185 2.09926 46.6611 1.86423 46.3791C0.55852 44.8045 -0.3446 43.1776 0.126546 41.1054C0.778315 38.2339 2.62046 36.8989 5.33308 36.1562C6.60398 35.8085 8.07037 35.4876 9.73226 35.1936C10.7507 35.0128 11.89 34.8353 12.7746 34.8931C14.7418 35.0205 15.7309 36.5439 15.8974 38.4125C15.9235 38.697 15.9232 39.2909 15.8963 40.194C15.8245 42.6419 13.1206 45.7137 10.7638 46.2103C10.1885 46.3322 9.61656 46.4586 9.04784 46.5892C9.01012 46.5979 8.98909 46.6215 8.98473 46.66C8.70836 49.1602 9.22484 51.4357 10.5342 53.4865C11.3492 54.7638 13.1054 56.7174 12.9302 58.3312C12.804 59.4974 11.6963 60.2106 10.6648 60.5395C8.92598 61.0941 7.22456 61.7464 5.5605 62.4963C5.14702 62.6825 4.70852 62.7958 4.27328 62.9308ZM5.45495 42.9577C6.6116 43.6676 8.7595 43.0622 9.93029 42.5504C10.8704 42.1399 11.8627 41.3689 12.2479 40.4085C12.8964 38.7925 10.7355 38.2034 9.65718 38.2785C8.28291 38.3733 5.37552 39.2194 4.9022 40.7863C4.7009 41.4528 4.81189 42.5635 5.45495 42.9577Z" fill="#466C45"/>
<path d="M28.6467 94.3791C27.9014 93.7224 27.316 93.154 27.156 92.1685C26.8738 90.4241 27.3443 88.9406 28.5673 87.7181C29.3558 86.9297 30.1352 86.2223 30.9056 85.5958C34.093 83.0012 37.3453 80.4916 40.6625 78.0669C43.5765 75.9359 46.4251 73.6034 48.7264 71.3863C50.2715 69.8978 51.6403 67.9573 52.8024 66.0223C54.0679 63.9152 55.4476 61.8865 56.7185 59.7871C58.577 56.7163 60.6407 53.7889 62.9097 51.0049C65.2002 48.1943 68.8312 44.0194 72.7146 43.7286C74.4664 43.5969 76.5305 44.0499 77.9059 45.2161C79.192 46.3083 80.044 47.5421 80.1234 49.2865C80.2681 52.4978 79.0212 55.6829 77.4456 58.5087C75.9451 61.2005 74.3097 63.362 72.2141 65.8448C71.6054 66.5649 70.9624 67.4444 70.2849 68.4832C68.4293 71.329 66.935 74.195 65.8019 77.0814C64.4766 80.456 63.9565 84.1311 64.197 87.7442C64.2456 88.4767 64.2673 89.0869 64.2623 89.5747C64.2438 91.2244 64.4625 93.0103 63.6856 94.5282C62.9185 96.0299 61.8238 97.403 60.4071 98.3166C58.825 99.338 57.1744 99.7115 55.2833 99.9304C53.2377 100.167 51.3335 99.7812 49.4239 99.0702C47.7033 98.4299 46.1788 97.9083 44.8506 97.5054C42.1434 96.6843 38.4156 97.0437 36.1187 96.9587C33.653 96.8673 30.5813 96.0821 28.6467 94.3791ZM70.0738 56.5214C71.769 57.5471 73.8005 57.656 75.7264 57.2488C75.8004 57.2335 75.8632 57.186 75.9147 57.1061C76.3238 56.4789 76.7971 55.8157 77.104 55.1874C77.6603 54.0462 78.0539 52.7533 78.2845 51.3087C78.4978 49.9704 78.1899 47.8557 77.1159 46.8941C75.2052 45.1823 72.9594 45.0571 70.743 46.1744C69.1152 46.9954 67.6974 48.1054 66.4896 49.5043C66.4664 49.5312 66.4551 49.5627 66.4559 49.599C66.4972 52.2931 67.7344 55.1058 70.0738 56.5214ZM58.3506 61.2081C58.7565 64.6012 61.3527 67.194 64.5702 68.0923C65.2129 68.2724 65.7667 68.3308 66.2317 68.2676C67.4395 68.1043 68.5102 67.1591 69.2893 66.3729C71.2253 64.4194 72.9482 62.2136 74.4577 59.7555C74.5433 59.6161 74.6097 59.4695 74.6568 59.3156C74.6603 59.3044 74.6609 59.2926 74.6585 59.2811C74.6561 59.2697 74.6509 59.2591 74.6433 59.2502C74.6356 59.2414 74.6259 59.2347 74.6149 59.2307C74.604 59.2267 74.5922 59.2255 74.5807 59.2273C71.9627 59.6357 68.7757 58.6883 67.0456 56.6139C65.7954 55.1156 64.9728 53.0727 64.716 51.1192C64.7116 51.0858 64.6989 51.0822 64.6779 51.1083C62.5811 53.7457 60.7064 56.5214 58.9034 59.3646C58.5008 60.0005 58.2668 60.5123 58.3506 61.2081ZM38.8683 91.354C38.7758 92.1794 39.8269 92.713 40.4939 92.4288C41.0651 92.186 41.4906 91.1188 41.6766 90.5678C42.2838 88.7787 42.9922 86.9493 44.0346 85.3649C45.3512 83.3624 46.7156 81.3413 48.2194 79.4749C50.4696 76.6807 53.1952 74.1892 55.3573 72.0593C55.7316 71.6912 56.6989 70.3845 55.9873 69.9326C55.0319 69.3239 52.6991 71.284 52.0027 71.9417C46.7983 76.8647 41.2599 83.0586 39.1174 90.1268C38.9999 90.5144 38.9053 91.023 38.8683 91.354ZM51.2367 94.4368C51.8569 94.8713 52.5968 93.9968 52.9406 93.5678C53.8575 92.423 54.6979 91.158 55.4617 89.7729C56.8661 87.2255 58.2814 84.17 59.7075 80.6063C60.282 79.1696 60.7851 77.7086 61.2167 76.2233C61.4343 75.4731 62.4462 71.4887 61.1068 71.4647C60.1852 71.4473 59.6857 73.2832 59.5182 73.9595C58.899 76.4531 57.9448 78.9435 57.0395 81.3468C56.1211 83.7827 54.9199 86.1566 53.7545 88.4825C53.0048 89.9809 52.056 91.4019 51.2203 92.8567C51.0843 93.093 50.8286 93.5417 50.8961 93.8771C50.9461 94.1268 51.0597 94.3134 51.2367 94.4368Z" fill="#466C45"/>
<path d="M27.4672 62.0869C26.7241 61.5892 27.0048 60.6234 27.2235 59.7304C27.3802 59.0945 27.3454 58.5326 27.2932 57.9076C27.2736 57.6767 27.2863 57.5079 27.3312 57.4012C27.6163 56.7239 29.2136 56.4811 29.8415 56.3058C30.873 56.0175 31.8675 55.6295 32.825 55.1417C35.5235 53.7675 38.029 52.1018 40.3416 50.1446C41.532 49.1384 42.521 47.6662 43.4829 46.4019C43.9236 45.8226 44.8387 44.9896 45.5938 45.6342C47.4142 47.186 48.3271 50.3711 48.5611 52.6622C48.6329 53.3678 48.5034 54.1878 47.9506 54.6832C46.6406 55.8538 45.0215 56.1337 43.3121 56.1076C42.7622 56.0989 42.3549 56.1123 42.0902 56.1479C39.1001 56.5431 36.2286 57.276 34.6563 59.9994C34.1416 60.8923 34.9827 62.0194 35.9696 61.9551C37.321 61.8669 37.827 60.9969 38.6735 60.1279C39.5266 59.2513 40.7442 59.6738 41.2589 60.6691C41.9117 61.9322 42.792 65.8208 40.1457 65.5714C39.7094 65.5301 39.2024 65.3504 38.7584 65.3896C37.7585 65.48 36.3374 66.4546 35.7585 67.2647C35.2765 67.9399 34.6922 69.0234 34.813 69.8498C34.9697 70.9312 35.9402 71.223 36.9359 71.0999C38.0403 70.9627 39.0294 70.3137 39.8944 69.6473C43.1086 67.1689 45.5949 63.8771 46.2075 59.8186C46.2989 59.2103 46.3813 58.8059 46.4545 58.6056C46.7157 57.8901 47.4392 56.4571 48.461 56.8611C49.2205 57.1616 49.696 58.0328 49.9625 58.7275C50.6883 60.6168 51.6839 63.8814 50.4642 65.7239C49.7228 66.8448 48.9013 67.872 47.9996 68.8056C45.9235 70.9551 43.677 72.9453 41.2599 74.7762C40.5614 75.3061 39.9858 75.7478 39.5331 76.1014C36.1024 78.7845 32.4496 81.3184 28.6119 83.3885C28.5402 83.4273 28.484 83.4896 28.4531 83.5649C27.9079 84.8956 26.3128 85.5555 25.834 83.6509C25.3516 81.7359 25.0227 79.7939 24.8471 77.8252C24.8333 77.6669 24.8591 77.3827 24.9244 76.9725C24.9998 76.5014 25.2486 76.1718 25.6708 75.9838C25.7034 75.97 25.7248 75.9457 25.735 75.9108C26.0817 74.7653 26.3458 73.7181 26.5271 72.7693C26.7611 71.5497 28.3421 62.6705 27.4672 62.0869Z" fill="#466C45"/>
<path d="M5.54633 68.0804C5.1013 68.2351 4.52352 68.5073 4.05782 68.0989C3.6233 67.7193 3.32045 67.2953 3.14926 66.8271C2.41914 64.8245 9.01518 62.5073 10.3394 62.0761C10.9977 61.8626 12.2327 61.5316 12.8148 61.8419C13.2566 62.0772 13.5014 62.9788 13.608 63.4318C13.7756 64.1363 13.1489 64.6263 12.6081 64.8986C12.5761 64.9146 12.5506 64.9411 12.5357 64.9738C12.5209 65.0065 12.5176 65.0433 12.5265 65.0782C13.1434 67.536 13.7974 69.9087 14.8223 72.3066C15.3566 73.5556 15.806 74.7588 16.5492 75.6637C16.5783 75.699 16.617 75.7252 16.6606 75.7391C16.7042 75.753 16.7509 75.7541 16.7951 75.7421C16.8392 75.7302 16.8791 75.7058 16.9097 75.6718C16.9404 75.6378 16.9607 75.5957 16.9681 75.5505C17.021 75.2209 17.0315 74.8997 16.9996 74.5868C16.7592 72.2118 16.4012 68.5073 16.3914 65.6652C16.387 64.7679 16.3392 63.9599 16.3402 63.1062C16.3402 63.067 16.321 63.0449 16.2826 63.0398C15.3018 62.8946 14.7759 62.3135 14.7048 61.2964C14.6722 60.8282 14.6319 60.336 14.7919 59.9233C15.0813 59.1795 15.8898 58.7951 16.6449 58.6536C18.5077 58.3051 20.0583 57.949 21.1366 57.8194C21.7394 57.7465 22.7796 57.7269 23.9145 57.6191C26.3736 57.385 26.5031 61.0677 24.4574 61.6884C24.4204 61.7 24.3914 61.7222 24.3704 61.7548C24.2543 61.9363 24.1716 62.1657 24.1223 62.443C23.5859 65.4365 23.2801 68.5084 23.1767 71.1882C23.1405 72.1312 23.1767 73.3741 23.2856 74.9167C23.4466 77.1897 23.5891 78.7668 23.7132 79.6481C24.0004 81.6931 24.7349 83.8285 24.884 85.9367C25.0396 88.1374 22.8743 89.6586 20.8526 89.5345C20.1181 89.4899 19.227 89.0804 18.6296 88.6884C14.4045 85.9182 11.5787 82.0688 9.54617 77.4942C8.42979 74.9821 7.33516 72.4884 6.38852 69.9055C6.28044 69.6122 6.02364 69.014 5.61815 68.1109C5.60364 68.079 5.5797 68.0688 5.54633 68.0804Z" fill="#466C45"/>
</svg>
