<svg width="100" height="100" viewBox="0 0 100 100" fill="none" xmlns="http://www.w3.org/2000/svg">
<path d="M66.4118 21.6733C67.0153 22.2134 67.6199 22.752 68.2256 23.2892C69.2844 24.2278 69.6075 25.0859 68.0874 25.8361C67.1538 26.2978 66.3802 26.5799 65.2486 26.8837C64.4274 27.1043 63.6559 27.4408 62.9341 27.8931C62.451 28.1969 62.0462 28.688 61.6067 29.093C60.3814 30.2222 58.0017 31.1021 56.9234 29.2618C56.4178 28.3994 56.1581 27.4644 56.1443 26.4568C56.1233 24.9309 56.1781 23.7621 56.3086 22.9505C56.6731 20.6889 56.8233 19.4465 56.6666 17.4668C56.511 15.4872 56.1715 13.2985 55.7842 11.4822C55.7399 11.2732 55.622 11.1338 55.4305 11.0641C53.9104 10.5164 54.6841 14.9624 54.7766 15.5155C55.1596 17.812 55.3979 19.9626 54.7809 22.2188C54.1901 24.3825 52.2489 24.2387 50.558 23.6692C48.7093 23.0453 47.3426 21.2638 46.1511 19.8178C45.9473 19.5702 45.7336 19.4189 45.5102 19.3637C45.4894 19.3586 45.4677 19.358 45.4467 19.3619C45.4257 19.3659 45.4058 19.3743 45.3883 19.3866C44.8465 19.7579 45.5418 21.0025 45.7801 21.3814C46.6397 22.7545 47.7746 24.0264 49.1663 24.8637C50.3479 25.5748 52.078 26.1323 53.5078 26.6898C54.5045 27.0786 55.2923 27.4553 55.8864 28.3461C57.4805 30.7308 55.8658 31.2589 54.0834 32.1931C53.5626 32.4668 53.045 32.7677 52.5307 33.0958C51.5481 33.7241 50.5329 34.323 49.632 35.021C48.4691 35.9219 47.3353 36.8573 46.2305 37.8271C45.5798 38.3988 44.6267 39.1316 43.9041 38.1222C43.598 37.6939 43.4729 37.1734 43.5287 36.5607C43.8312 33.2363 44.1381 29.8128 42.9161 26.5711C41.9934 24.1233 40.6645 21.9085 38.9293 19.9267C38.9046 19.8984 38.8738 19.8878 38.8368 19.8951C38.0098 20.0617 37.3265 20.2337 36.6399 19.8635C36.1688 19.6087 35.5692 19.184 35.3146 18.7191C34.7945 17.7706 35.3342 17.1761 35.9772 16.3322C36.5634 15.5642 37.1713 14.8132 37.8009 14.0793C39.3123 12.3163 40.5299 10.5545 41.4124 8.39084C41.6858 7.72153 41.8995 7.24859 42.0533 6.97201C43.0619 5.15354 45.9346 5.8047 46.3143 7.78106C46.4986 8.73929 46.327 9.61876 45.7996 10.4195C45.7807 10.4489 45.7733 10.4842 45.779 10.5186C46.0978 12.4078 47.9084 16.3562 50.0618 16.8353C50.0973 16.8433 50.1321 16.8404 50.1662 16.8266C50.6319 16.6349 50.7418 15.9108 50.8528 15.4143C51.6504 11.8655 49.0857 8.11208 46.9944 5.47041C46.7539 5.16552 46.5842 4.95536 46.2012 4.80836C45.5505 4.55682 44.9346 4.23342 44.742 3.51801C44.544 2.78264 44.5936 2.05634 44.8911 1.33912C45.1413 0.735864 45.8845 0.369993 46.4612 0.179436C47.9051 -0.298592 49.9769 0.256748 51.3001 0.927511C51.991 1.27814 53.3239 1.21825 54.2771 1.0952C55.2727 0.966712 56.3859 0.645486 57.4435 0.417905C58.6829 0.150036 60.7917 0.227348 60.7275 2.07739C60.6959 2.99207 60.1453 3.91764 59.4032 4.45664C59.24 4.57424 59.178 4.72887 59.1453 4.9118C58.7609 7.05549 58.9462 9.14146 59.7014 11.1697C61.1594 15.0887 63.2595 18.8519 66.4118 21.6733Z" fill="#466C45"/>
<path d="M66.2015 21.2507C65.7194 20.8064 65.0633 20.2075 65.3876 19.4791C65.4043 19.442 65.3977 19.4101 65.368 19.3832C64.1994 18.3248 63.2712 16.7797 62.5432 15.3924C61.585 13.566 61.0786 11.623 61.0242 9.56352C61.0112 9.07025 61.0732 8.4376 61.0612 7.86266C61.0598 7.82636 61.0442 7.79769 61.0144 7.77663C60.8197 7.64379 60.6303 7.55123 60.54 7.32038C60.3587 6.85651 60.2832 6.39554 60.3137 5.93748C60.4008 4.65257 60.96 2.20472 62.3311 1.67007C63.8065 1.09622 66.0774 3.45696 67.4844 3.97854C68.101 4.20721 68.7527 4.30086 69.4397 4.25948C70.1143 4.21919 70.8912 4.10703 71.5071 4.23008C73.2731 4.58179 74.5016 5.9255 74.5527 7.75268C74.5865 8.93631 73.5593 9.77694 72.4059 9.65172C71.8869 9.5951 71.4767 9.48076 70.9979 9.20418C69.6421 8.42344 67.7531 7.51747 66.1297 8.33524C64.9458 8.93305 65.5856 10.9693 66.6008 11.3918C67.5137 11.7718 68.3853 11.7642 69.283 11.2916C69.3142 11.2749 69.3389 11.2513 69.357 11.2208C69.7727 10.5239 70.1263 9.43285 71.1829 9.82159C72.8694 10.4412 73.8781 14.5115 70.8205 13.7819C69.517 13.4716 67.5214 14.7706 68.431 16.2559C68.7226 16.7318 68.9816 16.8363 69.5333 16.9713C70.221 17.1401 70.7803 17.0497 71.3493 16.588C71.9028 16.1401 72.415 15.6519 72.8858 15.1235C73.7715 14.1293 73.9684 12.8466 74.1904 11.6117C74.2934 11.0383 74.4059 10.6187 74.5277 10.353C75.4167 8.41146 77.6147 7.97917 79.4264 8.84485C80.6962 9.45245 82.1804 10.757 82.1173 12.2662C82.0749 13.2919 81.1924 14.8545 80.2827 15.3881C79.0895 16.0864 77.8577 16.7085 76.5875 17.2544C75.4178 17.7564 74.0196 19.8221 73.3515 20.8957C72.7247 21.9019 71.7563 23.2227 70.5028 23.6278C69.0143 24.1069 67.2276 22.197 66.2015 21.2507Z" fill="#466C45"/>
<path d="M21.612 28.7218C20.9624 28.3113 21.4238 27.2812 21.7709 26.7411C22.6055 25.4431 23.5706 23.9796 24.082 22.6174C24.5652 21.3325 24.7951 20.0349 24.7719 18.7246C24.7447 17.2644 24.736 15.8521 24.6479 14.3483C24.5358 12.4438 24.5739 10.8203 25.0352 9.08019C25.7262 6.46791 27.8491 3.55401 30.6945 3.2023C32.4801 2.98125 33.7303 3.75873 35.0611 4.81061C35.7695 5.3703 37.1753 4.66251 37.8499 4.3304C40.6562 2.95185 42.2209 5.11005 41.2818 7.72995C40.5992 9.63626 39.6867 11.2888 38.5441 12.6877C37.6011 13.842 36.6664 15.0031 35.7401 16.1711C35.3592 16.6524 34.7586 17.3602 34.2265 17.6575C33.6629 17.9722 32.9817 17.872 32.6379 17.3297C32.2951 16.7907 32.4398 15.6136 32.5019 14.9918C32.5606 14.3908 32.8414 13.5262 32.7652 12.7933C32.664 11.8166 31.4997 10.8518 30.9992 12.2587C30.2212 14.4463 30.7816 16.3312 31.7043 18.3751C32.6553 20.481 30.836 22.2254 29.2201 23.2849C27.3214 24.5295 26.1266 26.0268 24.7382 27.646C24.0853 28.4082 22.5957 29.3447 21.612 28.7218ZM30.3333 6.11184C28.8197 6.14342 28.157 7.75826 28.2691 9.08999C28.3681 10.2747 29.6934 10.2486 30.4791 9.923C30.9731 9.71829 31.7315 9.17819 32.0057 8.78945C32.7119 7.79093 31.4529 6.08898 30.3333 6.11184Z" fill="#466C45"/>
<path d="M17.9687 12.1323C19.0046 11.6913 19.689 12.4012 19.9545 13.3257C20.3223 14.6041 20.0612 15.8727 19.7119 17.1184C19.3887 18.2715 18.7489 19.3539 18.0906 20.3655C17.1389 21.8268 16.4095 23.2587 15.9024 24.6612C15.6601 25.3319 15.6046 26.0702 15.7359 26.876C15.7371 26.8836 15.7399 26.8908 15.7442 26.8972C15.7485 26.9036 15.7541 26.909 15.7607 26.913C15.7673 26.917 15.7748 26.9196 15.7825 26.9206C15.7902 26.9215 15.7981 26.9208 15.8056 26.9185C16.7751 26.6234 17.7022 25.2263 17.9198 24.2245C18.0754 23.5113 18.1124 22.4562 18.2799 21.7266C18.6706 20.0399 19.9099 17.7761 21.6302 17.1935C23.1046 16.6948 24.0861 17.5724 24.2014 19.025C24.455 22.1948 22.4518 24.8626 20.9338 27.4531C19.3039 30.2342 16.9742 32.4599 14.0298 33.5902C12.7959 34.0638 11.6098 34.4918 10.2823 34.8097C8.30195 35.2845 6.44889 35.7462 4.45438 36.0239C3.06486 36.2177 1.66011 35.6863 2.25748 33.955C3.16061 31.3438 5.0387 30.1416 7.39446 28.8894C8.86668 28.1065 10.0919 26.766 10.4695 25.1381C10.772 23.8304 10.7023 22.0184 10.9809 20.4929C11.1593 19.5114 11.4339 18.6149 11.8046 17.8033C12.4879 16.306 13.711 15.6908 15.0319 14.8687C16.1755 14.1565 16.6249 12.705 17.9687 12.1323Z" fill="#466C45"/>
<path d="M82.6875 32.2149C82.052 31.6541 81.7919 31.3253 81.9715 30.4204C82.0107 30.2229 82.019 30.0469 81.9965 29.8923C81.5493 26.7954 80.7104 23.9305 78.8932 21.3694C78.8727 21.3404 78.8438 21.3187 78.8105 21.3074C77.8443 20.9655 77.2741 19.7252 76.8954 18.8519C76.6561 18.3009 76.6789 17.8327 77.1599 17.4636C78.0314 16.795 79.1772 16.2745 80.1783 15.7496C80.9835 15.3271 81.5395 14.5932 82.1412 13.88C82.48 13.4793 82.748 13.215 82.9453 13.0873C84.0465 12.3795 85.3631 12.9588 86.2532 13.77C87.0606 14.5061 89.5665 17.0737 88.8233 18.4076C88.626 18.7626 88.3355 18.9742 87.9518 19.0425C87.1335 19.1895 86.6058 18.5601 85.8593 18.3978C84.7005 18.1463 83.6537 18.669 82.9932 19.6283C82.1021 20.9219 83.4698 22.2493 84.6145 20.8413C84.8437 20.5597 85.0606 20.2686 85.2652 19.968C86.4415 18.2399 87.9811 20.849 88.3979 21.7734C88.6514 22.3375 88.8212 22.8079 88.5927 23.4013C88.3729 23.9727 87.934 24.2322 87.276 24.1799C85.8147 24.0634 84.5536 25.8318 86.0095 26.9479C86.6417 27.4335 87.7548 26.2216 88.0475 25.7643C88.4748 25.0971 88.8088 24.3864 89.0497 23.6322C89.313 22.8079 89.202 21.9847 89.8103 21.2965C90.4403 20.5844 91.2585 20.5778 92.0169 21.1517C93.0499 21.9342 93.9132 22.8754 94.6067 23.9752C95.1605 24.8539 96.8928 27.6807 96.6937 28.652C96.5098 29.5471 95.8612 30.1852 94.9026 30.0818C94.0474 29.9892 93.1257 29.8847 92.3151 29.9391C89.6264 30.121 87.6743 31.3895 85.9094 33.3583C85.6352 33.6632 85.2282 33.8635 84.8637 33.6958C84.1717 33.3793 83.4462 32.8857 82.6875 32.2149Z" fill="#466C45"/>
<path d="M37.0228 37.7411C38.2589 37.1705 36.4722 32.3206 36.234 31.3101C36.0762 30.6404 35.8977 29.9468 35.8281 29.2956C35.6881 27.9788 35.7733 26.724 36.0838 25.5313C36.3939 24.3422 37.5484 22.8831 38.8944 22.8515C41.0499 22.8025 42.6353 26.5766 43.039 28.3014C43.4536 30.0763 43.5657 31.5148 43.4362 33.3136C43.2283 36.1753 43.0923 39.1447 42.7289 41.6187C42.4264 43.6691 41.7637 45.3536 40.7649 47.061C40.405 47.6766 40.0946 48.1518 39.8334 48.4864C38.6017 50.0642 36.1447 52.1429 33.9685 51.2021C32.5779 50.6021 31.6758 47.6643 31.3549 46.3206C31.0154 44.9039 31.1525 43.4372 30.9784 41.9748C30.7201 39.818 30.1587 37.7466 29.294 35.7604C28.788 34.5953 28.0133 33.3779 27.2668 32.3086C26.54 31.2676 25.9491 30.489 25.5291 29.5471C24.367 26.9349 28.6335 24.1026 30.4659 22.8014C31.7966 21.8562 32.456 19.2625 34.2046 18.9499C35.9347 18.6418 35.8651 21.1953 35.8031 22.1796C35.7806 22.5455 35.6848 23.05 35.5158 23.6932C34.8977 26.0474 34.5075 28.439 34.345 30.868C34.2841 31.7732 34.287 32.4981 34.3537 33.0425C34.5256 34.4417 35.3928 37.1531 36.9064 37.7455C36.925 37.7527 36.9449 37.756 36.9649 37.7553C36.9849 37.7545 37.0046 37.7497 37.0228 37.7411Z" fill="#466C45"/>
<path d="M67.3942 37.3567C67.0504 37.1476 66.5825 36.7904 66.2658 36.4387C64.8056 34.8184 63.5009 33.1571 62.3519 31.4548C61.6783 30.4574 61.946 29.0288 62.8687 28.2894C63.9133 27.4531 65.6075 27.3116 66.8784 26.7388C68.6945 25.9189 70.3517 24.9606 71.7031 23.4645C72.422 22.6674 73.2464 21.5513 74.1764 20.1161C74.2664 19.9774 74.4118 19.8297 74.6127 19.6729C75.5931 18.9063 76.5235 19.7034 77.1731 20.4591C79.0337 22.6282 80.5005 25.0532 80.9543 27.9649C81.0544 28.6084 81.1403 29.1943 80.6898 29.5972C80.0729 30.1492 79.259 28.7925 78.8999 28.3123C78.5648 27.8647 77.7204 27.3137 77.1067 27.5293C76.0229 27.9094 75.9152 29.0179 76.1807 30.0491C76.5975 31.6628 78.0033 34.0627 79.8814 34.2555C81.0935 34.3807 82.3362 33.9647 83.5026 33.6675C83.8124 33.5884 84.0822 33.682 84.3122 33.9484C84.7899 34.5038 84.6517 35.1582 84.3241 35.8148C83.9825 36.4997 83.6201 37.1661 83.3416 37.8739C82.8802 39.0499 82.5255 40.1835 82.0184 42.0444C81.8269 42.7489 81.6441 43.8084 81.3677 44.5129C81.0533 45.3155 80.074 45.6879 79.2514 45.5387C79.0076 45.4944 78.7298 45.3594 78.4179 45.1336C77.8216 44.7035 77.2231 44.1721 76.4691 43.9173C75.653 43.6422 74.8177 43.4596 73.9631 43.3696C73.7158 43.3435 73.5261 43.2832 73.3941 43.1888C72.7477 42.7271 72.9773 42.15 73.2787 41.4999C74.1057 39.7131 74.6182 38.4739 73.8532 36.4943C73.4347 35.4104 72.8638 34.3851 72.1405 33.4181C71.578 32.6646 70.3549 31.7597 69.59 32.8944C69.3949 33.1826 69.3183 33.4951 69.3604 33.8319C69.4725 34.7259 69.6705 35.5992 69.5443 36.4986C69.3974 37.5472 68.2114 37.851 67.3942 37.3567Z" fill="#466C45"/>
<path d="M21.9069 45.0509C21.595 45.0937 21.3273 45.2302 21.1038 45.4603C20.1115 46.4795 19.6839 47.9626 19.8264 49.2399C19.8699 49.6297 20.1104 50.1491 20.3422 50.5695C20.9667 51.703 21.6098 53.0064 21.3759 54.3458C21.2594 55.0122 21.0027 55.7515 20.4249 56.1599C19.3988 56.884 17.5773 57.105 16.3325 57.337C15.0594 57.5744 13.6144 57.496 12.7515 56.3951C12.1465 55.6241 11.8085 54.7345 11.7374 53.7262C11.6917 53.087 11.6057 52.4151 11.6688 51.8108C11.8799 49.7702 12.9572 47.6447 14.1584 46.0494C14.4283 45.6908 14.9459 44.8288 15.7112 43.4633C16.6012 41.8767 17.1812 39.5356 16.6883 37.7814C16.154 35.878 15.2803 33.8657 17.0713 32.277C17.6096 31.7986 18.2515 31.281 18.9973 30.7242C20.2783 29.7667 21.7248 29.2876 23.3367 29.2869C25.1059 29.2858 26.3964 31.0977 26.762 32.6603C27.3322 35.0962 27.0645 37.4613 27.0645 39.9287C27.0645 41.6731 27.5749 42.5519 28.713 43.9936C29.4609 44.9409 30.2132 45.8843 30.9698 46.8236C32.146 48.2838 32.7434 50.8373 32.3887 52.6438C32.2004 53.6031 31.2059 54.2107 30.3528 54.4231C28.4921 54.888 26.6717 55.4706 24.8023 55.9127C23.5608 56.2056 22.217 56.3374 21.8666 54.7367C21.6403 53.7044 21.9341 52.8583 22.39 51.8511C22.9254 50.6707 23.1854 49.9314 23.23 48.7728C23.2725 47.6566 23.0886 45.6857 22.0081 45.0694C21.9769 45.052 21.9431 45.0458 21.9069 45.0509ZM20.0255 38.916C20.5195 40.1955 21.9167 41.1287 23.0886 39.8514C23.8959 38.9705 23.9155 38.0405 23.9123 36.7524C23.9094 36.0192 23.8473 35.3974 23.7262 34.8871C23.489 33.8897 22.2322 31.6933 21.1115 33.5216C20.303 34.8414 19.439 37.3992 20.0255 38.916Z" fill="#466C45"/>
<path d="M85.6756 34.3175C87.3404 31.7739 90.3512 30.3006 93.3598 30.4215C93.6786 30.4334 94.0268 30.4106 94.3261 30.4672C96.2085 30.8189 97.931 31.8871 98.9135 33.5401C100.093 35.5208 100.013 38.1461 99.9897 40.3936C99.9839 40.9744 99.8733 42.1457 99.6578 43.9075C99.1682 47.9027 98.3923 51.9893 97.5458 56.5159C97.0888 58.9594 97.2825 61.7644 97.4413 64.2961C97.6187 67.1218 97.4544 69.5609 96.8886 72.1079C96.2194 75.123 94.4991 77.9346 92.3631 80.157C90.892 81.688 88.6603 82.7279 86.6777 83.3802C85.249 83.8506 83.7094 84.309 82.5331 85.1279C82.2059 85.3544 81.8284 85.6658 81.4004 86.0622C80.6235 86.7808 79.9826 87.7325 79.3003 88.5819C77.6758 90.6029 76.3058 92.9462 73.7335 93.7433C72.6889 94.0667 71.0339 94.3563 69.9393 94.0155C66.8621 93.0573 64.9187 90.0508 64.7653 86.93C64.5335 82.202 66.2767 76.9742 68.6281 72.8832C69.9219 70.6313 71.1993 68.484 72.7999 66.4282C74.2656 64.5476 75.7705 62.7466 77.0403 60.6864C78.4973 58.3202 79.6986 56.2012 80.3819 53.4691C81.1835 50.2649 81.8055 47.1492 82.248 44.122C82.7431 40.741 83.7736 37.2238 85.6756 34.3175ZM85.4362 39.4964C86.3219 42.3166 89.8343 44.5053 92.7255 44.2048C94.8081 43.9892 96.7536 42.7478 98.018 41.1232C98.3934 40.6408 98.3466 38.8354 98.3129 38.2223C98.2683 37.4144 98.2901 36.6489 98.0659 35.8137C97.5066 33.7252 96.1302 32.3815 93.9235 32.0613C90.6852 31.5909 87.8355 33.3844 86.3839 36.2111C86.0434 36.8732 85.2164 38.7984 85.4362 39.4964ZM83.0358 58.5848C84.495 59.8403 86.1859 60.5002 88.1097 60.5525C90.6297 60.6211 93.5274 60.0744 94.6699 57.5612C95.0145 56.8034 95.2727 56.1257 95.4446 55.5283C96.3369 52.4194 97.0072 48.997 97.6437 45.7031C97.7623 45.089 97.8222 44.5325 97.8624 43.9369C97.8631 43.9268 97.8607 43.9167 97.8555 43.908C97.8504 43.8993 97.8427 43.8923 97.8335 43.8881C97.8243 43.8838 97.814 43.8825 97.804 43.8842C97.794 43.8859 97.7848 43.8906 97.7776 43.8977C95.0116 46.7288 90.2859 46.7833 87.1434 44.6338C86.0673 43.8977 85.1848 42.8055 84.4308 41.7036C84.4025 41.6622 84.3796 41.6651 84.3622 41.7123C84.2164 42.105 84.1268 42.5093 84.0935 42.9253C84.076 43.1344 83.9923 43.3489 83.9879 43.5787C83.9828 43.8175 83.972 43.9805 83.9553 44.0676C83.7304 45.2095 83.5197 46.3539 83.3231 47.5009C83.1642 48.4319 82.9129 49.3477 82.7268 50.27C82.396 51.9135 82.0812 53.3007 81.7823 54.4317C81.3413 56.1021 81.7591 57.4865 83.0358 58.5848ZM73.0252 86.379C74.06 87.2589 74.6127 86.1362 74.8532 85.3326C75.5844 82.8913 76.4005 80.2343 77.3504 77.7005C78.5365 74.5347 79.8585 71.4273 81.3166 68.3784C82.1055 66.7276 82.7388 65.3197 83.4058 63.7669C83.6103 63.2921 83.2643 62.7967 82.7942 62.7629C82.2828 62.7281 81.8509 63.2399 81.6082 63.6504C80.6209 65.3215 79.7312 67.0434 78.9391 68.8161C78.0548 70.7928 76.7886 73.9031 75.1405 78.1469C74.3222 80.254 73.6323 82.4318 72.9816 84.5965C72.8184 85.1399 72.4974 85.9315 73.0252 86.379ZM88.0901 76.5724C87.496 78.1437 89.2838 78.7741 89.9062 77.315C90.4582 76.0185 90.9029 74.7194 91.2402 73.4178C91.5557 72.1993 91.7592 70.7696 91.9681 69.4401C92.1705 68.1501 92.2605 66.8532 92.238 65.5494C92.2307 65.1414 92.1941 64.8587 92.1281 64.7012C91.7146 63.7179 90.4415 64.3059 90.3773 65.2402C90.2547 67.0507 90.0487 68.8521 89.7593 70.6444C89.4241 72.7177 88.83 74.6134 88.0901 76.5724Z" fill="#466C45"/>
<path d="M59.1321 46.7976C59.1258 46.7927 59.1181 46.79 59.1101 46.7896C59.1022 46.7893 59.0943 46.7914 59.0875 46.7956C59.0808 46.7999 59.0755 46.8061 59.0724 46.8135C59.0693 46.8208 59.0685 46.8289 59.0701 46.8368L59.5445 49.2628C59.5532 49.3064 59.5797 49.3274 59.624 49.326C60.2202 49.2977 61.3693 49.4436 61.6838 50.0523C62.1408 50.9354 61.6217 51.7542 61.1136 52.4511C60.3773 53.458 59.6425 54.4652 58.9091 55.4728C57.574 57.3087 56.3389 59.2219 55.0843 61.1133C54.7615 61.6005 54.323 62.0973 53.7688 62.604C52.746 63.5394 51.6546 62.8393 51.1758 61.7798C50.696 60.7213 49.9942 58.4314 50.708 57.3817C50.7276 57.3535 50.7369 57.3196 50.7341 57.2859C50.3467 52.744 48.9235 48.5169 47.2325 44.1003C47.2268 44.0856 47.2176 44.0724 47.2056 44.0619C47.1937 44.0515 47.1794 44.0441 47.164 44.0405C45.4589 43.6441 44.8648 41.8354 45.337 40.2968C45.6598 39.2442 46.2318 38.3509 47.053 37.617C48.5082 36.3169 50.0467 35.1274 51.6688 34.0487C52.9484 33.1972 54.3553 32.4752 55.7524 31.7892C57.2845 31.0379 59.093 30.4597 60.7023 31.1555C63.9274 32.5482 64.786 36.5967 62.5901 39.2536C62.5133 39.3466 62.5278 39.4221 62.6337 39.4801C63.8513 40.1444 65.1026 40.3785 66.429 40.5963C66.9731 40.6855 67.4054 40.6968 67.726 40.63C68.8511 40.397 69.5497 39.4954 70.2156 38.5851C70.574 38.0943 71.0861 37.8486 71.7521 37.8479C72.4724 37.8468 73.3472 37.9829 73.7041 38.6613C74.0763 39.368 73.5572 40.4275 73.2003 41.1494C72.9327 41.6917 72.5203 43.0724 71.9077 43.4089C71.0361 43.8891 69.9893 44.1896 69.2266 44.6448C67.2919 45.8001 65.6314 47.5195 64.0863 49.2443C63.9231 49.4273 63.4313 49.7539 63.2387 49.8487C62.2398 50.3376 61.5978 48.3895 60.884 47.9627C60.2768 47.6004 59.6929 47.2121 59.1321 46.7976ZM52.5436 42.3842C53.5838 43.2684 54.648 42.7022 55.6132 42.0445C56.6505 41.3382 57.5413 40.5425 58.2856 39.6576C59.0016 38.8072 59.3095 37.8141 58.674 36.7905C57.3955 34.7282 54.0615 36.3713 52.7112 37.5658C51.9288 38.2584 51.215 39.295 51.4196 40.4209C51.5632 41.2151 51.9379 41.8695 52.5436 42.3842Z" fill="#466C45"/>
<path d="M2.15863 62.4265C0.466612 61.024 0.295778 58.4782 0.786517 56.5105C1.38716 54.0986 2.08463 51.6878 2.51879 49.241C2.60149 48.7717 2.68745 47.4389 2.31423 46.9674C1.41109 45.8262 0.269663 44.4629 0.0378948 42.8143C-0.157965 41.4118 0.431791 39.7371 1.19891 38.5513C2.09225 37.1705 4.08676 36.4943 5.63079 36.0773C7.45302 35.5851 9.29991 35.2152 11.1715 34.9677C13.1769 34.7031 15.4347 34.9002 16.0789 37.2195C17.1985 41.2539 15.1028 44.4988 11.4272 46.0113C10.9865 46.1932 10.413 46.3195 9.91469 46.5068C9.88074 46.5194 9.85061 46.5405 9.82718 46.5679C9.80375 46.5954 9.7878 46.6283 9.78086 46.6636C9.57411 47.698 9.53385 48.6661 9.63178 49.8573C9.77106 51.5506 10.2346 52.903 11.1519 54.2772C11.8483 55.3214 13.166 57.1954 12.9027 58.5076C12.6665 59.6858 11.4805 60.2879 10.4381 60.6189C8.83637 61.1278 7.26985 61.7289 5.73852 62.4222C5.26084 62.6378 4.79404 62.7728 4.3033 62.9231C3.54706 63.1561 2.75818 62.9242 2.15863 62.4265ZM4.97466 41.9094C4.83103 42.9025 5.8223 43.2564 6.62859 43.2542C8.63943 43.2466 11.3499 42.2873 12.2367 40.3131C12.7111 39.258 11.6557 38.5818 10.7961 38.3977C9.42831 38.1037 7.11607 39.1012 6.0421 39.9102C5.38597 40.4057 5.08891 41.1222 4.97466 41.9094Z" fill="#466C45"/>
<path d="M27.5825 62.2544C26.4509 61.4769 26.6239 61.1775 26.9503 59.9035C27.2463 58.7492 26.4052 57.4077 26.9329 56.333C27.49 55.1972 29.1625 54.9599 30.2702 54.7247C31.3169 54.5014 32.3136 54.1029 33.3049 53.7076C33.9948 53.4318 34.6335 53.1167 35.2211 52.7625C36.5638 51.9545 37.8891 51.0387 38.9892 49.9204C40.5376 48.3491 41.8052 46.363 42.7475 44.8516C43.7486 43.2466 45.371 42.8894 46.557 44.5532C47.9357 46.486 48.5766 49.1288 48.8029 51.5091C48.8867 52.3846 48.792 53.4147 48.2327 54.1399C46.8465 55.9366 44.3656 55.6154 42.4494 55.2114C41.8074 55.0753 41.2231 55.1385 40.5594 55.3475C38.5006 55.9921 34.6748 57.6255 34.0579 59.9253C33.6542 61.4323 35.665 61.5151 36.5518 61.4682C37.5768 61.4138 39.1328 60.8203 39.8358 60.0559C40.1121 59.7565 40.2558 59.3405 40.4027 58.9551C40.6453 58.3148 41.37 58.1514 41.9238 58.4857C43.5528 59.4679 43.7094 61.9179 42.7073 63.3738C42.1422 64.1948 41.4338 64.3026 40.5822 63.6972C40.2503 63.4609 38.826 64.1774 38.567 64.2972C37.0241 65.0115 35.1231 66.5828 34.9588 68.4089C34.956 68.4421 34.9644 68.4755 34.9828 68.5036C36.0263 70.1403 38.3135 69.0263 39.5409 68.3512C41.8455 67.0826 43.5343 64.8863 44.5168 62.4384C44.9564 61.3452 45.6833 56.9732 47.4297 56.8785C49.0281 56.7914 49.9041 58.5369 50.2294 59.8294C50.7169 61.772 51.435 63.8083 50.62 65.7748C50.2566 66.6525 49.4928 67.4017 48.7485 68.006C45.6332 70.5399 42.6594 73.2153 39.419 75.5967C37.1224 77.2838 34.7927 78.9237 32.4301 80.5164C30.5433 81.7882 28.972 83.1515 27.3236 84.8382C26.7621 85.4132 26.2079 85.4825 25.6609 85.0462C25.0875 84.5889 24.9254 83.5795 24.7502 82.8336C24.3541 81.148 23.8546 79.0976 24.192 77.4696C24.2855 77.021 24.5572 76.5956 25.007 76.1935C25.0345 76.168 25.0541 76.1379 25.0657 76.1031C25.6761 74.1539 26.1419 72.1972 26.4977 70.1871C26.9667 67.5323 27.6554 64.9865 27.6293 62.3404C27.6286 62.3041 27.613 62.2755 27.5825 62.2544Z" fill="#466C45"/>
<path d="M51.6208 65.7629C54.5805 62.8109 56.8329 59.4625 59.1614 56.0194C61.0112 53.2834 63.0587 50.7056 65.3038 48.286C66.6868 46.7964 68.517 45.1587 70.3886 44.342C72.1571 43.5696 73.9688 43.4902 75.8237 44.1036C78.0532 44.8418 79.8791 46.6647 80.0945 49.0853C80.2534 50.8744 79.9009 52.7331 79.3002 54.3948C77.7932 58.5609 75.2764 62.3514 72.3668 65.6736C71.8604 66.2522 71.4586 66.7524 71.1611 67.1741C69.245 69.8953 67.5802 72.8386 66.2625 75.8962C64.6542 79.6246 63.8817 83.7505 64.2016 87.8034C64.318 89.2832 64.2386 90.7325 64.2418 92.1971C64.2462 94.5524 62.3093 97.0895 60.4062 98.3167C58.8241 99.3381 57.1734 99.7116 55.2823 99.9305C53.2367 100.167 51.3335 99.7813 49.4228 99.0702C47.7029 98.43 46.1784 97.9084 44.8495 97.5055C42.1477 96.6866 38.4144 97.0438 36.1446 96.96C33.2143 96.8522 30.0686 95.9015 28.0131 93.7771C26.2232 91.9281 25.5605 89.3562 26.7411 86.9802C27.7759 84.896 29.2372 83.4325 31.1327 82.0714C34.297 79.7985 37.4587 77.522 40.6178 75.2418C43.3881 73.2404 45.8886 70.9319 48.4849 68.7182C49.6111 67.7578 50.6023 66.7789 51.6208 65.7629ZM70.0676 56.5312C71.764 57.5766 73.8803 57.6462 75.7693 57.2194C75.9793 57.1715 76.9891 55.4227 77.1044 55.1886C78.0173 53.3309 78.7475 50.76 78.0989 48.6911C77.8911 48.0269 77.6006 47.3441 77.1131 46.8944C73.5463 43.6005 68.9697 46.6189 66.4899 49.5089C66.4659 49.5357 66.4543 49.5673 66.455 49.6036C66.4986 52.3041 67.7401 55.096 70.0676 56.5312ZM58.3519 61.2244C58.7675 64.6043 61.3387 67.1785 64.54 68.0855C65.1841 68.2685 65.7398 68.3313 66.207 68.2739C67.6672 68.0943 69.1013 66.6417 70.073 65.5789C71.5587 63.9513 72.8894 62.2062 74.0653 60.3435C74.2242 60.0908 74.5103 59.7108 74.6485 59.3558C74.6863 59.2578 74.6529 59.2124 74.5484 59.2197C71.2797 59.4397 68.1612 58.1896 66.4202 55.3574C65.676 54.1476 64.9926 52.2965 64.9687 50.8711C64.968 50.8217 64.9513 50.8156 64.9186 50.8526C64.3013 51.5553 63.8211 52.1411 63.478 52.6101C61.9996 54.6311 60.4755 56.8815 58.9057 59.3613C58.4966 60.0092 58.2648 60.5144 58.3519 61.2244ZM35.3209 91.0516C34.5483 92.6991 36.3851 93.6127 37.3774 92.3125C38.1859 91.253 39.0052 89.9757 39.6755 89.0578C41.3686 86.7413 43.0929 84.4477 44.8484 82.177C47.8284 78.3223 51.0249 74.6574 54.4379 71.1824C54.8721 70.7414 56.0103 69.5893 55.6381 68.9164C54.5892 67.0217 51.0702 71.0005 50.3934 71.7639C49.1653 73.1482 47.9401 74.5351 46.7178 75.9245C44.4382 78.515 42.3098 81.2711 40.2848 84.0652C39.4455 85.2238 38.5841 86.3657 37.7006 87.4909C36.8203 88.6113 35.9291 89.7558 35.3209 91.0516ZM50.8939 93.874C51.0909 94.8573 51.9516 94.6253 52.4565 94.0809C53.2682 93.2054 53.9824 92.2541 54.599 91.2269C55.7785 89.2611 56.8369 87.2313 57.7741 85.1377C59.2311 81.8819 60.3072 79.3012 61.2038 76.248C61.4247 75.4966 62.4541 71.4905 61.1059 71.4655C60.1777 71.4481 59.6805 73.3025 59.514 73.9819C59.3798 74.5271 59.2064 75.1275 58.9939 75.783C58.2902 77.9528 57.5438 80.0457 56.7545 82.0616C56.0244 83.9269 55.0897 85.753 54.2203 87.5671C53.4205 89.2353 52.4478 90.7957 51.4902 92.3659C51.3161 92.6512 50.8134 93.47 50.8939 93.874Z" fill="#466C45"/>
<path d="M5.28488 67.6412C4.6233 67.6782 3.73432 67.6053 3.29798 67.026C2.85621 66.4402 2.74631 65.8159 2.96828 65.1531C3.62224 63.2007 8.95508 61.4465 10.7363 60.9412C10.848 60.91 11.0403 60.8813 11.313 60.8552C12.0758 60.7811 12.6198 60.7452 13.214 61.3245C13.9114 62.0029 13.4838 63.3292 13.0268 64.0054C12.86 64.2515 12.6898 64.4958 12.5165 64.7382C12.4954 64.7673 12.4885 64.7996 12.4958 64.8351C13.1167 67.7214 14.0173 70.5163 15.1976 73.2197C15.5403 74.0026 16.0104 75.0066 16.5512 75.6653C16.5802 75.7009 16.6189 75.7273 16.6625 75.7412C16.7062 75.7552 16.753 75.7561 16.7972 75.7438C16.8414 75.7316 16.8811 75.7067 16.9114 75.6723C16.9417 75.6379 16.9614 75.5953 16.9679 75.5499C17.1148 74.5481 16.8929 73.5442 16.796 72.55C16.7271 71.8487 16.6179 70.403 16.4685 68.2129C16.339 66.3128 16.3847 64.3506 16.3075 62.4297C16.3062 62.3952 16.2948 62.3617 16.2747 62.3335C16.2546 62.3053 16.2266 62.2834 16.1943 62.2708C15.684 62.0758 15.0355 61.8385 14.7079 61.4269C14.0311 60.5753 14.2052 58.7013 15.2063 58.121C16.1138 57.595 17.1769 57.4197 18.1942 57.2357C19.1895 57.0564 20.1848 56.876 21.18 56.6945C22.2855 56.492 23.3943 56.3765 24.5075 56.2437C25.984 56.0684 26.4389 56.9351 26.589 58.2266C26.7011 59.187 26.7261 60.0603 26.0602 60.804C25.7642 61.134 25.317 61.3408 24.921 61.5314C24.5575 61.7067 24.2833 61.6806 24.1756 62.1706C24.0363 62.8021 23.9239 63.4373 23.8383 64.0762C23.5713 66.0696 23.3711 68.0695 23.2376 70.076C23.0625 72.7068 23.2627 75.2744 23.551 78.0969C23.6896 79.4544 23.8582 80.5404 24.057 81.3549C24.4734 83.0637 24.7918 84.7911 25.0124 86.5369C25.1125 87.3297 25.2681 89.1884 24.5325 89.8385C23.6043 90.6573 21.6164 90.1619 20.6001 89.7078C15.9016 87.6073 12.3076 83.2975 10.078 78.6195C9.00405 76.3655 7.92029 73.9155 6.98342 71.4644C6.5188 70.247 6.02915 68.8608 5.3741 67.6891C5.35452 67.6543 5.32477 67.6383 5.28488 67.6412Z" fill="#466C45"/>
</svg>
